<?xml version="1.0" standalone="no"?>
<!DOCTYPE svg PUBLIC "-//W3C//DTD SVG 20010904//EN"
 "http://www.w3.org/TR/2001/REC-SVG-20010904/DTD/svg10.dtd">
<svg version="1.0" xmlns="http://www.w3.org/2000/svg"
 width="400.000000pt" height="425.000000pt" viewBox="0 0 400.000000 425.000000"
 preserveAspectRatio="xMidYMid meet">

<g transform="translate(0.000000,425.000000) scale(0.100000,-0.100000)"
fill="#000000" stroke="none">
<path d="M1272 3567 c-11 -41 -45 -83 -87 -105 -19 -10 -19 -11 6 -20 34 -13
76 -64 84 -102 9 -39 21 -38 29 3 8 40 22 58 68 90 l38 25 -31 12 c-37 16 -68
59 -76 105 -8 47 -18 44 -31 -8z"/>
<path d="M917 3372 c-21 -82 -65 -139 -128 -169 l-42 -20 56 -31 c62 -35 91
-75 117 -160 l17 -57 12 45 c7 25 17 57 23 72 13 35 89 105 122 114 33 8 33
20 0 28 -45 12 -118 95 -133 151 -27 102 -25 101 -44 27z m89 -133 c14 -15 40
-34 57 -42 l30 -15 -30 -15 c-42 -22 -98 -88 -113 -133 l-13 -39 -19 45 c-22
51 -69 104 -112 127 l-30 16 36 18 c47 24 84 69 105 128 l17 49 22 -55 c13
-31 35 -68 50 -84z"/>
<path d="M2233 3289 c-92 -84 -171 -157 -175 -163 -4 -6 -8 -129 -8 -273 0
-253 -1 -262 -20 -268 -18 -6 -20 -15 -20 -116 l0 -109 -30 0 -30 0 0 -600 0
-601 25 -24 24 -25 251 0 251 0 24 25 25 24 0 601 0 600 -30 0 -30 0 0 111 c0
102 -2 111 -20 116 -19 5 -20 16 -22 427 l-3 421 -22 3 c-16 2 -65 -36 -190
-149z m152 -320 c0 -210 -2 -244 -15 -244 -13 0 -15 34 -18 235 -1 129 0 241
3 248 3 8 11 12 18 9 9 -3 12 -61 12 -248z m85 -504 l0 -105 -220 0 -220 0 0
105 0 105 220 0 220 0 0 -105z m-110 -430 c0 -197 4 -305 10 -305 6 0 10 108
10 305 l0 305 75 0 75 0 0 -585 c0 -572 0 -585 -20 -605 -19 -19 -33 -20 -260
-20 -227 0 -241 1 -260 20 -20 20 -20 33 -20 605 l0 585 195 0 195 0 0 -305z"/>
<path d="M1283 2200 c-12 -5 -26 -18 -32 -29 -7 -13 -11 -191 -11 -540 l0
-521 300 0 300 0 0 515 c0 355 -3 522 -11 538 -6 14 -22 30 -36 36 -29 13
-477 14 -510 1z m511 -31 l26 -20 0 -510 0 -509 -70 0 -70 0 0 305 c0 197 -4
305 -10 305 -6 0 -10 -108 -10 -305 l0 -305 -200 0 -200 0 0 508 c0 279 4 512
8 518 20 29 52 33 273 34 214 0 228 -1 253 -21z"/>
<path d="M3107 1325 c-3 -11 -9 -36 -12 -55 -16 -78 -81 -159 -147 -182 -35
-12 -36 -24 -2 -32 14 -4 48 -28 75 -53 41 -38 53 -58 71 -116 l21 -71 21 66
c28 85 64 131 125 160 28 13 50 26 51 29 0 4 -12 10 -26 13 -14 4 -48 27 -75
53 -48 45 -51 51 -89 183 -6 23 -7 23 -13 5z m80 -187 c15 -17 43 -38 61 -47
l33 -17 -45 -29 c-52 -33 -83 -71 -106 -134 l-18 -45 -6 31 c-11 50 -61 116
-111 147 l-46 30 28 14 c61 31 110 95 127 167 7 28 8 28 31 -29 13 -32 37 -72
52 -88z"/>
<path d="M2767 828 c-17 -56 -61 -108 -93 -108 -8 0 -14 -4 -14 -10 0 -5 4
-10 10 -10 24 0 90 -73 96 -106 9 -49 19 -49 32 0 10 40 55 92 94 110 11 5 11
7 -1 12 -40 18 -83 72 -95 119 l-13 50 -16 -57z"/>
</g>
</svg>
