<?xml version="1.0" standalone="no"?>
<!DOCTYPE svg PUBLIC "-//W3C//DTD SVG 20010904//EN"
 "http://www.w3.org/TR/2001/REC-SVG-20010904/DTD/svg10.dtd">
<svg version="1.0" xmlns="http://www.w3.org/2000/svg"
 width="502.000000pt" height="110.000000pt" viewBox="0 0 502.000000 110.000000"
 preserveAspectRatio="xMidYMid meet">

<g transform="translate(0.000000,110.000000) scale(0.100000,-0.100000)"
fill="#000000" stroke="none">
<path d="M2738 569 c2 -144 0 -205 -9 -215 -10 -12 -3 -14 41 -14 46 0 51 2
44 18 -4 9 -8 42 -9 72 0 52 1 55 26 58 21 2 35 -7 67 -46 41 -49 99 -82 170
-97 51 -11 41 19 -12 33 -34 9 -55 24 -92 67 l-47 56 49 51 c27 28 63 59 79
69 l30 19 -62 0 c-53 0 -61 -2 -57 -17 3 -11 -8 -32 -25 -50 -26 -29 -36 -33
-80 -33 l-51 0 0 115 0 115 -32 0 -33 0 3 -201z"/>
<path d="M450 568 c0 -131 -4 -180 -14 -200 l-15 -28 54 0 53 0 -14 29 c-18
35 -16 302 2 308 5 2 41 -73 78 -167 l68 -171 61 3 61 3 66 164 c36 91 71 166
78 169 15 5 17 -290 2 -319 -10 -18 -7 -19 42 -19 40 0 49 3 40 12 -8 8 -12
67 -12 200 l0 189 -61 -3 -61 -3 -67 -168 c-61 -155 -68 -167 -90 -165 -20 3
-32 24 -90 170 l-66 168 -57 0 -58 0 0 -172z"/>
<path d="M1690 559 c0 -105 -4 -188 -10 -200 -10 -18 -7 -19 40 -19 47 0 50 1
40 19 -14 28 -14 324 1 319 7 -2 41 -79 78 -171 l66 -167 61 0 60 0 68 170
c37 94 72 170 77 170 14 0 11 -314 -3 -328 -9 -9 0 -12 40 -12 51 0 51 0 42
26 -6 14 -10 104 -10 200 l0 174 -58 0 -58 0 -68 -170 c-59 -149 -71 -170 -90
-170 -20 0 -31 21 -90 170 l-68 170 -59 0 -59 0 0 -181z"/>
<path d="M3708 728 c15 -15 17 -340 2 -369 -10 -18 -6 -19 135 -19 156 0 188
8 219 52 30 42 11 136 -29 152 -15 5 -14 9 4 32 23 29 28 83 11 115 -22 40
-61 49 -212 49 -110 0 -139 -3 -130 -12z m273 -58 c20 -11 25 -45 9 -70 -7
-11 -34 -16 -110 -18 l-100 -4 0 35 c0 55 19 67 106 67 42 0 84 -5 95 -10z
m19 -165 c27 -24 26 -70 -2 -89 -28 -20 -187 -23 -206 -4 -13 13 -17 100 -4
112 4 5 49 6 100 3 70 -3 97 -9 112 -22z"/>
<path d="M4151 711 c12 -33 8 -328 -5 -353 -8 -17 2 -18 134 -18 163 0 203 12
226 65 16 39 4 98 -26 130 -21 22 -21 25 -7 40 25 24 31 78 13 113 -22 43 -60
52 -212 52 l-133 0 10 -29z m267 -47 c29 -20 25 -54 -8 -71 -14 -7 -61 -13
-107 -13 l-83 0 0 38 c0 21 5 43 12 50 19 19 158 16 186 -4z m-16 -144 c60
-17 73 -56 33 -95 -22 -23 -32 -25 -108 -25 -51 0 -88 5 -95 12 -7 7 -12 36
-12 65 l0 53 73 0 c39 0 89 -5 109 -10z"/>
<path d="M2432 640 c-35 -8 -67 -33 -84 -64 -15 -28 10 -39 35 -15 44 41 147
37 185 -6 32 -37 29 -59 -5 -51 -69 15 -179 17 -203 4 -68 -37 -61 -115 14
-149 61 -28 137 -25 174 6 17 14 33 25 36 25 3 0 6 -11 6 -25 0 -23 4 -25 46
-25 41 0 44 1 30 16 -12 11 -16 35 -16 85 0 105 -37 166 -117 195 -43 15 -54
15 -101 4z m126 -166 c50 -14 2 -68 -70 -78 -66 -9 -112 5 -116 34 -3 14 3 29
14 37 18 13 130 18 172 7z"/>
<path d="M3261 640 c-101 -24 -153 -140 -98 -220 37 -55 70 -74 141 -78 69 -5
104 8 145 52 15 16 21 31 17 42 -6 15 -9 15 -29 -4 -50 -47 -182 -48 -219 -1
-32 39 -24 52 30 45 136 -19 215 -2 228 49 18 73 -108 141 -215 115z m137 -66
c29 -20 28 -40 -3 -60 -20 -13 -42 -16 -105 -12 -44 3 -83 7 -86 10 -10 11 16
47 44 62 36 20 122 20 150 0z"/>
<path d="M1085 620 c9 -10 41 -77 69 -147 43 -103 57 -129 74 -131 l22 -3 -20
-38 c-14 -28 -31 -43 -60 -55 -43 -17 -53 -36 -20 -36 36 0 84 26 117 63 19
22 52 90 87 179 31 79 66 154 78 166 l22 22 -55 0 c-53 0 -56 -1 -52 -22 5
-30 -69 -212 -88 -216 -20 -3 -100 199 -87 222 8 14 2 16 -48 16 -56 0 -57 0
-39 -20z"/>
</g>
</svg>
